<svg width="52" height="61" viewBox="0 0 52 61" fill="none" xmlns="http://www.w3.org/2000/svg">
<path d="M26.0033 60.3644C26.0033 53.8151 28.1418 48.1263 32.4187 43.2981C36.6956 38.4698 42.0057 35.6254 48.349 34.7649C48.8776 34.6693 49.3461 34.7052 49.7546 34.8725C50.1631 35.0398 50.5355 35.2908 50.8719 35.6254C51.2083 35.96 51.4606 36.3305 51.6287 36.7369C51.7969 37.1432 51.833 37.6093 51.7369 38.1351C50.8719 44.4454 48.0126 49.7278 43.159 53.9824C38.3055 58.237 32.5869 60.3644 26.0033 60.3644ZM33.0674 53.3371C35.8066 52.3332 38.2094 50.8034 40.2757 48.7478C42.3421 46.6922 43.8799 44.302 44.889 41.5771C42.1499 42.581 39.7471 44.1107 37.6807 46.1663C35.6144 48.222 34.0766 50.6122 33.0674 53.3371ZM26.0033 60.3644C26.0033 53.8151 23.8649 48.1263 19.588 43.2981C15.3111 38.4698 10.001 35.6254 3.6577 34.7649C3.17715 34.6693 2.72063 34.7052 2.28813 34.8725C1.85564 35.0398 1.47119 35.2908 1.13481 35.6254C0.798422 35.96 0.546133 36.3305 0.37794 36.7369C0.209747 37.1432 0.173705 37.6093 0.269816 38.1351C1.13481 44.4454 3.99409 49.7278 8.84766 53.9824C13.7012 58.237 19.4198 60.3644 26.0033 60.3644ZM18.9392 53.3371C16.2001 52.3332 13.7973 50.8034 11.731 48.7478C9.6646 46.6922 8.12683 44.302 7.11767 41.5771C9.85682 42.581 12.2596 44.1107 14.3259 46.1663C16.3923 48.222 17.9301 50.6122 18.9392 53.3371ZM35.6624 29.0283C36.5755 29.0283 37.3564 28.7057 38.0051 28.0603C38.6539 27.4149 38.9782 26.6381 38.9782 25.7298C38.9782 25.0605 38.798 24.4749 38.4376 23.973C38.0772 23.471 37.6087 23.0767 37.032 22.7898L34.5091 21.5708C34.3169 22.6225 33.9685 23.5906 33.4639 24.4749C32.9593 25.3593 32.2986 26.1362 31.4816 26.8054L33.7883 28.4547C34.0285 28.6459 34.3049 28.7893 34.6172 28.8849C34.9296 28.9805 35.278 29.0283 35.6624 29.0283ZM34.5091 18.8459L37.032 17.6269C37.6087 17.3401 38.0652 16.9337 38.4016 16.4079C38.738 15.882 38.9062 15.3084 38.9062 14.6869C38.9062 13.7786 38.5938 13.0018 37.9691 12.3564C37.3444 11.7111 36.5755 11.3884 35.6624 11.3884C35.278 11.3884 34.9416 11.4362 34.6533 11.5318C34.3649 11.6274 34.0766 11.7708 33.7883 11.962L31.4095 13.6113C32.2265 14.2806 32.8993 15.0455 33.4279 15.9059C33.9565 16.7664 34.3169 17.7464 34.5091 18.8459ZM23.048 12.1772C23.5285 11.9859 24.0091 11.8425 24.4896 11.7469C24.9702 11.6513 25.4747 11.6035 26.0033 11.6035C26.5319 11.6035 27.0365 11.6513 27.5171 11.7469C27.9976 11.8425 28.4782 11.9859 28.9587 12.1772L29.3191 9.02205C29.4153 8.16157 29.1149 7.4206 28.4181 6.79913C27.7213 6.17767 26.9164 5.86694 26.0033 5.86694C25.0903 5.86694 24.2854 6.17767 23.5886 6.79913C22.8918 7.4206 22.5914 8.16157 22.6875 9.02205L23.048 12.1772ZM26.0033 23.0767C26.8203 23.0767 27.5051 22.8018 28.0577 22.252C28.6103 21.7023 28.8867 21.021 28.8867 20.2084C28.8867 19.3957 28.6103 18.7145 28.0577 18.1647C27.5051 17.615 26.8203 17.3401 26.0033 17.3401C25.1864 17.3401 24.5016 17.615 23.949 18.1647C23.3964 18.7145 23.12 19.3957 23.12 20.2084C23.12 21.021 23.3964 21.7023 23.949 22.252C24.5016 22.8018 25.1864 23.0767 26.0033 23.0767ZM26.0033 34.5498C26.9164 34.5498 27.7213 34.2391 28.4181 33.6176C29.1149 32.9961 29.4153 32.2552 29.3191 31.3947L28.9587 28.2396C28.4782 28.4308 27.9976 28.5742 27.5171 28.6698C27.0365 28.7654 26.5319 28.8132 26.0033 28.8132C25.4747 28.8132 24.9702 28.7654 24.4896 28.6698C24.0091 28.5742 23.5285 28.4308 23.048 28.2396L22.6875 31.3947C22.5914 32.2552 22.8918 32.9961 23.5886 33.6176C24.2854 34.2391 25.0903 34.5498 26.0033 34.5498ZM17.4976 18.8459C17.6898 17.7464 18.0382 16.7664 18.5428 15.9059C19.0474 15.0455 19.7081 14.2806 20.5251 13.6113L18.2184 11.962C17.9781 11.7708 17.7018 11.6274 17.3895 11.5318C17.0771 11.4362 16.7287 11.3884 16.3443 11.3884C15.4312 11.3884 14.6503 11.7111 14.0016 12.3564C13.3528 13.0018 13.0285 13.7786 13.0285 14.6869C13.0285 15.3084 13.2087 15.882 13.5691 16.4079C13.9295 16.9337 14.398 17.3401 14.9747 17.6269L17.4976 18.8459ZM16.3443 28.9566C16.7287 28.9566 17.0651 28.9208 17.3534 28.8491C17.6418 28.7774 17.9301 28.622 18.2184 28.383L20.5971 26.8054C19.7802 26.1362 19.1074 25.3713 18.5788 24.5108C18.0502 23.6503 17.6898 22.6703 17.4976 21.5708L14.9747 22.7898C14.398 23.0767 13.9415 23.483 13.6051 24.0088C13.2687 24.5347 13.1005 25.1084 13.1005 25.7298C13.1486 26.6381 13.473 27.403 14.0737 28.0244C14.6743 28.6459 15.4312 28.9566 16.3443 28.9566ZM26.0033 40.2864C24.1292 40.2864 22.4352 39.7725 20.9215 38.7447C19.4078 37.7169 18.3145 36.3664 17.6418 34.6932C17.4015 34.6932 17.1852 34.7052 16.993 34.7291C16.8008 34.753 16.5845 34.7649 16.3443 34.7649C13.8454 34.7649 11.7069 33.8805 9.9289 32.1117C8.15086 30.343 7.26184 28.2157 7.26184 25.7298C7.26184 24.7259 7.43003 23.7579 7.76642 22.8257C8.1028 21.8935 8.60738 21.021 9.28015 20.2084C8.65544 19.3957 8.17489 18.5232 7.8385 17.5911C7.50211 16.6589 7.33392 15.6908 7.33392 14.6869C7.33392 12.2011 8.21093 10.0738 9.96494 8.30498C11.719 6.53621 13.8454 5.65182 16.3443 5.65182C16.5845 5.65182 16.8008 5.66377 16.993 5.68767C17.1852 5.71158 17.4015 5.72353 17.6418 5.72353C18.3145 4.05036 19.4078 2.69988 20.9215 1.67207C22.4352 0.644272 24.1292 0.130371 26.0033 0.130371C27.8775 0.130371 29.5714 0.644272 31.0852 1.67207C32.5989 2.69988 33.6922 4.05036 34.3649 5.72353C34.6052 5.72353 34.8215 5.71158 35.0137 5.68767C35.2059 5.66377 35.4222 5.65182 35.6624 5.65182C38.1613 5.65182 40.2877 6.53621 42.0417 8.30498C43.7958 10.0738 44.6728 12.2011 44.6728 14.6869C44.6728 15.6908 44.5166 16.6589 44.2042 17.5911C43.8919 18.5232 43.3993 19.3957 42.7265 20.2084C43.3512 21.021 43.8318 21.8935 44.1682 22.8257C44.5046 23.7579 44.6728 24.7259 44.6728 25.7298C44.6728 28.2157 43.7958 30.343 42.0417 32.1117C40.2877 33.8805 38.1613 34.7649 35.6624 34.7649C35.4222 34.7649 35.2059 34.753 35.0137 34.7291C34.8215 34.7052 34.6052 34.6932 34.3649 34.6932C33.6922 36.3664 32.5989 37.7169 31.0852 38.7447C29.5714 39.7725 27.8775 40.2864 26.0033 40.2864Z" fill="#445A47"/>
</svg>
