<svg width="53" height="52" viewBox="0 0 53 52" fill="none" xmlns="http://www.w3.org/2000/svg">
<path d="M26.5618 51.6942C25.7501 51.6942 25.0696 51.421 24.5204 50.8748C23.9713 50.3285 23.6967 49.6516 23.6967 48.844V28.964C20.6406 28.964 17.7039 28.3821 14.8865 27.2183C12.0692 26.0545 9.58608 24.4037 7.43725 22.2661C5.28842 20.1285 3.64098 17.6583 2.49494 14.8556C1.3489 12.053 0.775879 9.13154 0.775879 6.09135V3.24117C0.775879 2.43362 1.05045 1.7567 1.5996 1.21042C2.14874 0.664133 2.82921 0.390991 3.64099 0.390991H6.50609C9.51445 0.390991 12.4273 0.972902 15.2447 2.13672C18.062 3.30055 20.5451 4.95127 22.6939 7.08891C24.1742 8.5615 25.4039 10.1766 26.3828 11.9342C27.3617 13.6918 28.1138 15.5682 28.639 17.5633C28.8778 17.2308 29.1404 16.9101 29.4269 16.6014C29.7134 16.2926 30.0238 15.972 30.3581 15.6394C32.5069 13.5018 34.99 11.8511 37.8074 10.6873C40.6247 9.52343 43.5615 8.94152 46.6176 8.94152H49.4827C50.2945 8.94152 50.9749 9.21467 51.5241 9.76095C52.0732 10.3072 52.3478 10.9842 52.3478 11.7917V14.6419C52.3478 17.6821 51.7628 20.6035 50.5929 23.4062C49.423 26.2088 47.7636 28.679 45.6148 30.8166C43.466 32.9543 40.9948 34.5931 38.2013 35.7332C35.4078 36.8733 32.4831 37.4433 29.4269 37.4433V48.844C29.4269 49.6516 29.1524 50.3285 28.6032 50.8748C28.0541 51.421 27.3736 51.6942 26.5618 51.6942ZM23.6967 23.1924C23.6967 20.9123 23.255 18.739 22.3716 16.6726C21.4882 14.6063 20.2347 12.7655 18.6112 11.1504C16.9876 9.53531 15.1372 8.28836 13.06 7.40955C10.9828 6.53075 8.79818 6.09135 6.50609 6.09135C6.50609 8.37149 6.93586 10.5566 7.79539 12.6468C8.65492 14.7369 9.89647 16.5895 11.52 18.2046C13.1436 19.8197 15.0059 21.0548 17.107 21.9098C19.2081 22.7649 21.4046 23.1924 23.6967 23.1924ZM29.4269 31.7429C31.719 31.7429 33.9037 31.3154 35.9809 30.4604C38.0581 29.6053 39.9085 28.3702 41.532 26.7551C43.1556 25.14 44.4091 23.2874 45.2925 21.1973C46.1759 19.1072 46.6176 16.922 46.6176 14.6419C44.3255 14.6419 42.1289 15.0813 40.0278 15.9601C37.9268 16.8389 36.0644 18.0858 34.4409 19.7009C32.8173 21.316 31.5758 23.1568 30.7162 25.2232C29.8567 27.2895 29.4269 29.4628 29.4269 31.7429Z" fill="#445A47"/>
</svg>
