<svg width="57" height="61" viewBox="0 0 57 61" fill="none" xmlns="http://www.w3.org/2000/svg">
<path d="M28.4364 30.4635C27.6162 30.4635 26.9287 30.1764 26.3738 29.6022C25.8189 29.028 25.5415 28.3164 25.5415 27.4676C25.5415 26.6188 25.8189 25.9072 26.3738 25.333C26.9287 24.7588 27.6162 24.4717 28.4364 24.4717C29.2566 24.4717 29.9442 24.7588 30.499 25.333C31.0539 25.9072 31.3313 26.6188 31.3313 27.4676C31.3313 28.3164 31.0539 29.028 30.499 29.6022C29.9442 30.1764 29.2566 30.4635 28.4364 30.4635ZM28.4364 18.4798C27.6162 18.4798 26.9287 18.1927 26.3738 17.6185C25.8189 17.0443 25.5415 16.3327 25.5415 15.4839C25.5415 14.6351 25.8189 13.9235 26.3738 13.3493C26.9287 12.7751 27.6162 12.488 28.4364 12.488C29.2566 12.488 29.9442 12.7751 30.499 13.3493C31.0539 13.9235 31.3313 14.6351 31.3313 15.4839C31.3313 16.3327 31.0539 17.0443 30.499 17.6185C29.9442 18.1927 29.2566 18.4798 28.4364 18.4798ZM28.4364 6.49612C27.6162 6.49612 26.9287 6.20901 26.3738 5.63479C25.8189 5.06058 25.5415 4.34904 25.5415 3.5002C25.5415 2.65135 25.8189 1.93982 26.3738 1.3656C26.9287 0.791382 27.6162 0.504272 28.4364 0.504272C29.2566 0.504272 29.9442 0.791382 30.499 1.3656C31.0539 1.93982 31.3313 2.65135 31.3313 3.5002C31.3313 4.34904 31.0539 5.06058 30.499 5.63479C29.9442 6.20901 29.2566 6.49612 28.4364 6.49612ZM37.1211 36.4554C36.3008 36.4554 35.6133 36.1683 35.0584 35.594C34.5036 35.0198 34.2262 34.3083 34.2262 33.4594C34.2262 32.6106 34.5036 31.8991 35.0584 31.3249C35.6133 30.7506 36.3008 30.4635 37.1211 30.4635C37.9413 30.4635 38.6288 30.7506 39.1837 31.3249C39.7385 31.8991 40.0159 32.6106 40.0159 33.4594C40.0159 34.3083 39.7385 35.0198 39.1837 35.594C38.6288 36.1683 37.9413 36.4554 37.1211 36.4554ZM45.2991 27.917C44.4789 27.917 43.7913 27.6299 43.2365 27.0557C42.6816 26.4814 42.4042 25.7699 42.4042 24.9211C42.4042 24.0722 42.6816 23.3607 43.2365 22.7865C43.7913 22.2122 44.4789 21.9251 45.2991 21.9251C46.1193 21.9251 46.8068 22.2122 47.3617 22.7865C47.9165 23.3607 48.194 24.0722 48.194 24.9211C48.194 25.7699 47.9165 26.4814 47.3617 27.0557C46.8068 27.6299 46.1193 27.917 45.2991 27.917ZM53.4771 19.5284C52.6569 19.5284 51.9694 19.2413 51.4145 18.6671C50.8597 18.0928 50.5823 17.3813 50.5823 16.5325C50.5823 15.6836 50.8597 14.9721 51.4145 14.3979C51.9694 13.8237 52.6569 13.5365 53.4771 13.5365C54.2973 13.5365 54.9849 13.8237 55.5397 14.3979C56.0946 14.9721 56.372 15.6836 56.372 16.5325C56.372 17.3813 56.0946 18.0928 55.5397 18.6671C54.9849 19.2413 54.2973 19.5284 53.4771 19.5284ZM19.7518 36.4554C18.9315 36.4554 18.244 36.1683 17.6892 35.594C17.1343 35.0198 16.8569 34.3083 16.8569 33.4594C16.8569 32.6106 17.1343 31.8991 17.6892 31.3249C18.244 30.7506 18.9315 30.4635 19.7518 30.4635C20.572 30.4635 21.2595 30.7506 21.8144 31.3249C22.3692 31.8991 22.6466 32.6106 22.6466 33.4594C22.6466 34.3083 22.3692 35.0198 21.8144 35.594C21.2595 36.1683 20.572 36.4554 19.7518 36.4554ZM11.5737 27.917C10.7535 27.917 10.066 27.6299 9.51111 27.0557C8.95626 26.4814 8.67883 25.7699 8.67883 24.9211C8.67883 24.0722 8.95626 23.3607 9.51111 22.7865C10.066 22.2122 10.7535 21.9251 11.5737 21.9251C12.3939 21.9251 13.0815 22.2122 13.6363 22.7865C14.1912 23.3607 14.4686 24.0722 14.4686 24.9211C14.4686 25.7699 14.1912 26.4814 13.6363 27.0557C13.0815 27.6299 12.3939 27.917 11.5737 27.917ZM3.39568 19.5284C2.57546 19.5284 1.88792 19.2413 1.33307 18.6671C0.77822 18.0928 0.500793 17.3813 0.500793 16.5325C0.500793 15.6836 0.77822 14.9721 1.33307 14.3979C1.88792 13.8237 2.57546 13.5365 3.39568 13.5365C4.21589 13.5365 4.90343 13.8237 5.45828 14.3979C6.01313 14.9721 6.29056 15.6836 6.29056 16.5325C6.29056 17.3813 6.01313 18.0928 5.45828 18.6671C4.90343 19.2413 4.21589 19.5284 3.39568 19.5284ZM25.5415 60.4228V48.4391H13.962V42.4472H42.9108V48.4391H31.3313V60.4228H25.5415Z" fill="#445A47"/>
</svg>
