<svg width="41" height="58" viewBox="0 0 41 58" fill="none" xmlns="http://www.w3.org/2000/svg">
<path d="M3.23074 20.1941V23.0443C3.23074 25.312 4.13632 27.4869 5.74825 29.0904C7.36019 30.6939 9.54644 31.5948 11.8261 31.5948H14.6912M37.612 17.3439V31.5948C37.612 33.8625 36.7064 36.0374 35.0945 37.6409C33.4826 39.2445 31.2963 40.1453 29.0167 40.1453H26.1516M14.6912 54.3962V8.79337C14.6912 7.28154 15.2949 5.83164 16.3695 4.76261C17.4441 3.69359 18.9016 3.09302 20.4214 3.09302C21.9411 3.09302 23.3986 3.69359 24.4732 4.76261C25.5479 5.83164 26.1516 7.28154 26.1516 8.79337V54.3962M6.09585 54.3962H34.7469" stroke="#445A47" stroke-width="6" stroke-linecap="round" stroke-linejoin="round"/>
</svg>
